<svg version="1.0" preserveAspectRatio="xMidYMid meet" viewBox="157.14000000000001 370.97999679400004 500.58 66.419999426" zoomAndPan="magnify" xmlns:xlink="http://www.w3.org/1999/xlink" xmlns="http://www.w3.org/2000/svg" style="max-height: 500px" width="500.58" height="66.419999426"><defs><g/></defs><g fill-opacity="1" fill="#ffffff"><g transform="translate(160.576167, 432.374998)"><g><path d="M 2.734375 -29.328125 L 36.109375 -43.84375 L 36.109375 -36.890625 L 8.734375 -25.421875 L 36.109375 -13.890625 L 36.109375 -6.9375 L 2.734375 -21.453125 Z M 2.734375 -29.328125"/></g></g></g><g fill-opacity="1" fill="#5e17eb"><g transform="translate(199.423821, 432.374998)"><g><path d="M 29.5625 -54.59375 C 34.96875 -54.59375 39.816406 -53.421875 44.109375 -51.078125 C 48.398438 -48.742188 51.753906 -45.492188 54.171875 -41.328125 C 56.585938 -37.171875 57.796875 -32.492188 57.796875 -27.296875 C 57.796875 -22.097656 56.570312 -17.429688 54.125 -13.296875 C 51.6875 -9.160156 48.304688 -5.910156 43.984375 -3.546875 C 39.671875 -1.179688 34.785156 0 29.328125 0 L 7.171875 0 L 7.171875 -54.59375 Z M 29.796875 -8.265625 C 33.273438 -8.265625 36.445312 -9.070312 39.3125 -10.6875 C 42.175781 -12.300781 44.425781 -14.550781 46.0625 -17.4375 C 47.695312 -20.320312 48.515625 -23.582031 48.515625 -27.21875 C 48.515625 -30.863281 47.671875 -34.140625 45.984375 -37.046875 C 44.296875 -39.960938 41.992188 -42.238281 39.078125 -43.875 C 36.160156 -45.507812 32.9375 -46.328125 29.40625 -46.328125 L 16.375 -46.328125 L 16.375 -8.265625 Z M 29.796875 -8.265625"/></g></g></g><g fill-opacity="1" fill="#5e17eb"><g transform="translate(259.873868, 432.374998)"><g><path d="M 7.171875 0 L 7.171875 -54.59375 L 16.375 -54.59375 L 16.375 -30.890625 L 45.3125 -30.890625 L 45.3125 -54.59375 L 54.515625 -54.59375 L 54.515625 0 L 45.3125 0 L 45.3125 -22.625 L 16.375 -22.625 L 16.375 0 Z M 7.171875 0"/></g></g></g><g fill-opacity="1" fill="#ffffff"><g transform="translate(321.580069, 432.374998)"><g><path d="M 28.9375 -54.59375 C 35.800781 -54.59375 41.117188 -52.96875 44.890625 -49.71875 C 48.660156 -46.46875 50.546875 -41.878906 50.546875 -35.953125 C 50.546875 -29.765625 48.660156 -24.96875 44.890625 -21.5625 C 41.117188 -18.15625 35.800781 -16.453125 28.9375 -16.453125 L 16.375 -16.453125 L 16.375 0 L 7.171875 0 L 7.171875 -54.59375 Z M 28.546875 -24.71875 C 32.804688 -24.71875 36.066406 -25.640625 38.328125 -27.484375 C 40.597656 -29.335938 41.734375 -32.082031 41.734375 -35.71875 C 41.734375 -39.257812 40.597656 -41.910156 38.328125 -43.671875 C 36.066406 -45.441406 32.804688 -46.328125 28.546875 -46.328125 L 16.375 -46.328125 L 16.375 -24.71875 Z M 28.546875 -24.71875"/></g></g></g><g fill-opacity="1" fill="#ffffff"><g transform="translate(374.074115, 432.374998)"><g><path d="M 7.171875 0 L 7.171875 -54.59375 L 46.171875 -54.59375 L 46.171875 -46.328125 L 16.375 -46.328125 L 16.375 -31.515625 L 43.0625 -31.515625 L 43.0625 -23.328125 L 16.375 -23.328125 L 16.375 -8.265625 L 47.109375 -8.265625 L 47.109375 0 Z M 7.171875 0"/></g></g></g><g fill-opacity="1" fill="#ffffff"><g transform="translate(425.242157, 432.374998)"><g><path d="M 52.265625 0 L 41.8125 0 L 31.828125 -16.53125 C 31.304688 -16.476562 30.472656 -16.453125 29.328125 -16.453125 L 16.375 -16.453125 L 16.375 0 L 7.171875 0 L 7.171875 -54.59375 L 29.328125 -54.59375 C 36.296875 -54.59375 41.703125 -52.96875 45.546875 -49.71875 C 49.398438 -46.46875 51.328125 -41.878906 51.328125 -35.953125 C 51.328125 -31.585938 50.347656 -27.894531 48.390625 -24.875 C 46.441406 -21.863281 43.648438 -19.65625 40.015625 -18.25 Z M 16.375 -24.71875 L 29.328125 -24.71875 C 33.585938 -24.71875 36.863281 -25.640625 39.15625 -27.484375 C 41.445312 -29.335938 42.59375 -32.082031 42.59375 -35.71875 C 42.59375 -39.257812 41.445312 -41.910156 39.15625 -43.671875 C 36.863281 -45.441406 33.585938 -46.328125 29.328125 -46.328125 L 16.375 -46.328125 Z M 16.375 -24.71875"/></g></g></g><g fill-opacity="1" fill="#ffffff"><g transform="translate(481.636201, 432.374998)"><g><path d="M 7.171875 0 L 7.171875 -54.59375 L 46.171875 -54.59375 L 46.171875 -46.328125 L 16.375 -46.328125 L 16.375 -31.515625 L 43.0625 -31.515625 L 43.0625 -23.328125 L 16.375 -23.328125 L 16.375 -8.265625 L 47.109375 -8.265625 L 47.109375 0 Z M 7.171875 0"/></g></g></g><g fill-opacity="1" fill="#ffffff"><g transform="translate(532.804254, 432.374998)"><g><path d="M 3.90625 -46.328125 L 3.90625 -54.59375 L 48.59375 -54.59375 L 48.59375 -47.96875 L 15.359375 -8.265625 L 48.984375 -8.265625 L 48.984375 0 L 2.890625 0 L 2.890625 -6.625 L 36.1875 -46.328125 Z M 3.90625 -46.328125"/></g></g></g><g fill-opacity="1" fill="#ffffff"><g transform="translate(584.75228, 432.374998)"><g><path d="M -1.640625 9.125 L 23.09375 -63.640625 L 30.734375 -63.640625 L 6 9.125 Z M -1.640625 9.125"/></g></g></g><g fill-opacity="1" fill="#ffffff"><g transform="translate(610.57031, 432.374998)"><g><path d="M 36.109375 -21.84375 L 2.734375 -7.328125 L 2.734375 -14.28125 L 30.109375 -25.734375 L 2.734375 -37.28125 L 2.734375 -44.21875 L 36.109375 -29.71875 Z M 36.109375 -21.84375"/></g></g></g></svg>